<svg width="1600" height="900" viewBox="0 0 1600 900" fill="none" xmlns="http://www.w3.org/2000/svg">
  <defs>
    <linearGradient id="bg" x1="0" y1="0" x2="1" y2="1">
      <stop offset="0" stop-color="#0f172a"/>
      <stop offset="1" stop-color="#16a34a"/>
    </linearGradient>
  </defs>
  <rect width="1600" height="900" fill="url(#bg)"/>
  <circle cx="260" cy="240" r="140" fill="#0f172a" opacity="0.7"/>
  <rect x="480" y="220" width="700" height="420" rx="40" fill="#020617" opacity="0.55"/>
  <rect x="520" y="260" width="620" height="10" rx="5" fill="#22c55e" opacity="0.9"/>
  <rect x="520" y="300" width="240" height="18" rx="9" fill="#e5e7eb" opacity="0.9"/>
  <rect x="520" y="332" width="320" height="12" rx="6" fill="#9ca3af" opacity="0.9"/>
  <rect x="520" y="370" width="540" height="10" rx="5" fill="#1e293b" opacity="0.7"/>
  <rect x="520" y="400" width="540" height="10" rx="5" fill="#1e293b" opacity="0.65"/>
  <rect x="520" y="430" width="360" height="10" rx="5" fill="#1e293b" opacity="0.6"/>
  <rect x="520" y="480" width="160" height="34" rx="17" fill="#22c55e"/>
  <rect x="700" y="480" width="160" height="34" rx="17" fill="#0f172a" stroke="#e5e7eb" stroke-width="1"/>
  <circle cx="260" cy="260" r="86" fill="#22c55e"/>
  <path d="M224 262L246 284L300 230" stroke="white" stroke-width="14" stroke-linecap="round" stroke-linejoin="round"/>
  <rect x="210" y="320" width="100" height="12" rx="6" fill="#e5e7eb" opacity="0.9"/>
  <rect x="210" y="342" width="140" height="10" rx="5" fill="#9ca3af" opacity="0.8"/>
  <circle cx="1400" cy="180" r="120" fill="#22c55e" opacity="0.25"/>
  <circle cx="200" cy="740" r="190" fill="#16a34a" opacity="0.18"/>
  <rect x="1160" y="620" width="140" height="140" rx="36" fill="#0f172a" opacity="0.75"/>
  <path d="M1200 700L1230 650L1260 700" stroke="#22c55e" stroke-width="10" stroke-linecap="round" stroke-linejoin="round"/>
</svg>

