<svg width="1600" height="900" viewBox="0 0 1600 900" fill="none" xmlns="http://www.w3.org/2000/svg">
  <defs>
    <linearGradient id="bg-services" x1="0" y1="0" x2="1" y2="1">
      <stop offset="0" stop-color="#0f172a"/>
      <stop offset="1" stop-color="#1d4ed8"/>
    </linearGradient>
  </defs>
  <rect width="1600" height="900" fill="url(#bg-services)"/>
  <rect x="260" y="200" width="360" height="480" rx="36" fill="#0b1120" stroke="#1e293b" stroke-width="2"/>
  <rect x="320" y="240" width="60" height="40" rx="8" fill="#22c55e"/>
  <rect x="400" y="240" width="60" height="40" rx="8" fill="#22c55e" opacity="0.85"/>
  <rect x="320" y="300" width="60" height="40" rx="8" fill="#1e293b"/>
  <rect x="400" y="300" width="60" height="40" rx="8" fill="#1e293b"/>
  <rect x="320" y="360" width="60" height="40" rx="8" fill="#1e293b"/>
  <rect x="400" y="360" width="60" height="40" rx="8" fill="#1e293b"/>
  <rect x="320" y="420" width="60" height="40" rx="8" fill="#1e293b"/>
  <rect x="400" y="420" width="60" height="40" rx="8" fill="#1e293b"/>
  <rect x="320" y="520" width="60" height="80" rx="16" fill="#22c55e"/>
  <rect x="400" y="520" width="60" height="80" rx="16" fill="#22c55e" opacity="0.7"/>
  <rect x="680" y="260" width="660" height="340" rx="40" fill="#020617" opacity="0.9"/>
  <rect x="720" y="300" width="260" height="16" rx="8" fill="#e5e7eb"/>
  <rect x="720" y="332" width="360" height="12" rx="6" fill="#9ca3af"/>
  <rect x="720" y="356" width="320" height="10" rx="5" fill="#9ca3af" opacity="0.85"/>
  <rect x="720" y="392" width="520" height="10" rx="5" fill="#1e293b"/>
  <rect x="720" y="414" width="480" height="10" rx="5" fill="#1e293b" opacity="0.9"/>
  <rect x="720" y="448" width="220" height="34" rx="17" fill="#22c55e"/>
  <rect x="960" y="448" width="190" height="34" rx="17" stroke="#e5e7eb" stroke-width="1"/>
  <circle cx="1360" cy="220" r="120" fill="#60a5fa" opacity="0.4"/>
  <circle cx="320" cy="720" r="140" fill="#22c55e" opacity="0.22"/>
</svg>

