<svg width="1600" height="900" viewBox="0 0 1600 900" fill="none" xmlns="http://www.w3.org/2000/svg">
  <defs>
    <linearGradient id="bg-office" x1="0" y1="0" x2="1" y2="0">
      <stop offset="0" stop-color="#eff6ff"/>
      <stop offset="1" stop-color="#e0f2fe"/>
    </linearGradient>
  </defs>
  <rect width="1600" height="900" fill="url(#bg-office)"/>
  <rect x="260" y="220" width="520" height="380" rx="40" fill="#ffffff" stroke="#e5e7eb" stroke-width="2"/>
  <rect x="300" y="260" width="440" height="80" rx="24" fill="#0f172a"/>
  <rect x="330" y="286" width="240" height="14" rx="7" fill="#e5e7eb"/>
  <rect x="330" y="312" width="180" height="10" rx="5" fill="#9ca3af"/>
  <rect x="300" y="370" width="180" height="120" rx="28" fill="#0f172a"/>
  <rect x="460" y="370" width="180" height="120" rx="28" fill="#1e293b"/>
  <circle cx="390" cy="380" r="34" fill="#22c55e"/>
  <circle cx="550" cy="380" r="34" fill="#0ea5e9"/>
  <rect x="840" y="230" width="520" height="340" rx="40" fill="#0f172a"/>
  <rect x="880" y="270" width="260" height="16" rx="8" fill="#e5e7eb"/>
  <rect x="880" y="302" width="340" height="10" rx="5" fill="#9ca3af"/>
  <rect x="880" y="324" width="300" height="10" rx="5" fill="#9ca3af" opacity="0.8"/>
  <rect x="880" y="364" width="380" height="10" rx="5" fill="#1e293b"/>
  <rect x="880" y="386" width="320" height="10" rx="5" fill="#1e293b" opacity="0.9"/>
  <rect x="880" y="420" width="190" height="34" rx="17" fill="#22c55e"/>
  <rect x="1090" y="420" width="150" height="34" rx="17" fill="none" stroke="#e5e7eb" stroke-width="1"/>
  <circle cx="300" cy="710" r="150" fill="#dbeafe"/>
  <circle cx="1350" cy="200" r="120" fill="#bfdbfe"/>
</svg>

