<svg width="1600" height="900" viewBox="0 0 1600 900" fill="none" xmlns="http://www.w3.org/2000/svg">
  <defs>
    <linearGradient id="bg-team" x1="0" y1="0" x2="1" y2="1">
      <stop offset="0" stop-color="#f9fafb"/>
      <stop offset="1" stop-color="#d1fae5"/>
    </linearGradient>
  </defs>
  <rect width="1600" height="900" fill="url(#bg-team)"/>
  <rect x="200" y="200" width="540" height="420" rx="48" fill="#ffffff" stroke="#e5e7eb" stroke-width="2"/>
  <rect x="240" y="240" width="180" height="260" rx="32" fill="#0f172a"/>
  <rect x="360" y="240" width="180" height="260" rx="32" fill="#1e293b"/>
  <rect x="480" y="240" width="180" height="260" rx="32" fill="#0f172a"/>
  <circle cx="310" cy="250" r="40" fill="#22c55e"/>
  <circle cx="430" cy="250" r="40" fill="#0ea5e9"/>
  <circle cx="550" cy="250" r="40" fill="#a855f7"/>
  <rect x="260" y="390" width="120" height="10" rx="5" fill="#f9fafb" opacity="0.9"/>
  <rect x="380" y="390" width="120" height="10" rx="5" fill="#f9fafb" opacity="0.8"/>
  <rect x="500" y="390" width="120" height="10" rx="5" fill="#f9fafb" opacity="0.7"/>
  <rect x="240" y="460" width="320" height="10" rx="5" fill="#e5e7eb"/>
  <rect x="240" y="484" width="280" height="10" rx="5" fill="#e5e7eb"/>
  <rect x="240" y="508" width="200" height="10" rx="5" fill="#e5e7eb"/>
  <rect x="780" y="250" width="540" height="140" rx="32" fill="#0f172a"/>
  <rect x="810" y="280" width="220" height="16" rx="8" fill="#e5e7eb"/>
  <rect x="810" y="310" width="320" height="10" rx="5" fill="#9ca3af"/>
  <rect x="810" y="332" width="260" height="10" rx="5" fill="#9ca3af" opacity="0.8"/>
  <rect x="780" y="430" width="420" height="170" rx="32" fill="#ffffff" stroke="#e5e7eb" stroke-width="2"/>
  <rect x="810" y="460" width="140" height="10" rx="5" fill="#0f172a"/>
  <rect x="810" y="484" width="260" height="10" rx="5" fill="#9ca3af"/>
  <rect x="810" y="508" width="260" height="10" rx="5" fill="#9ca3af" opacity="0.7"/>
  <rect x="810" y="540" width="170" height="32" rx="16" fill="#22c55e"/>
  <circle cx="1380" cy="220" r="120" fill="#bbf7d0"/>
  <circle cx="260" cy="700" r="120" fill="#bef264" opacity="0.6"/>
</svg>

