<svg width="400" height="260" viewBox="0 0 400 260" fill="none" xmlns="http://www.w3.org/2000/svg">
  <rect width="400" height="260" rx="24" fill="#0f172a"/>
  <rect x="40" y="44" width="320" height="140" rx="20" fill="#020617"/>
  <rect x="72" y="68" width="160" height="12" rx="6" fill="#e5e7eb"/>
  <rect x="72" y="90" width="220" height="8" rx="4" fill="#9ca3af"/>
  <rect x="72" y="108" width="180" height="8" rx="4" fill="#1f2937"/>
  <rect x="72" y="126" width="140" height="8" rx="4" fill="#1f2937"/>
  <rect x="260" y="72" width="56" height="88" rx="14" fill="#1d4ed8"/>
  <rect x="272" y="84" width="32" height="8" rx="4" fill="#e5e7eb"/>
  <rect x="272" y="100" width="26" height="6" rx="3" fill="#9ca3af"/>
  <rect x="272" y="116" width="26" height="6" rx="3" fill="#9ca3af" opacity="0.8"/>
  <rect x="56" y="198" width="72" height="24" rx="12" fill="#22c55e"/>
  <rect x="156" y="198" width="88" height="24" rx="12" stroke="#e5e7eb" stroke-width="1.5"/>
  <circle cx="320" cy="40" r="26" fill="#22c55e"/>
  <path d="M310 40L318 48L332 34" stroke="white" stroke-width="5" stroke-linecap="round" stroke-linejoin="round"/>
</svg>

