<svg width="400" height="260" viewBox="0 0 400 260" fill="none" xmlns="http://www.w3.org/2000/svg">
  <rect width="400" height="260" rx="24" fill="#0f172a"/>
  <rect x="52" y="56" width="296" height="144" rx="20" fill="#020617"/>
  <rect x="72" y="76" width="88" height="92" rx="10" fill="#27272a"/>
  <rect x="96" y="88" width="40" height="40" rx="8" fill="#1d4ed8"/>
  <path d="M104 112L112 120L128 104" stroke="white" stroke-width="5" stroke-linecap="round" stroke-linejoin="round"/>
  <rect x="184" y="76" width="144" height="16" rx="8" fill="#e5e7eb"/>
  <rect x="184" y="102" width="176" height="10" rx="5" fill="#9ca3af"/>
  <rect x="184" y="120" width="150" height="10" rx="5" fill="#9ca3af" opacity="0.8"/>
  <rect x="184" y="142" width="130" height="10" rx="5" fill="#1f2937"/>
  <rect x="72" y="184" width="84" height="12" rx="6" fill="#22c55e"/>
  <rect x="168" y="184" width="96" height="12" rx="6" fill="#22c55e" opacity="0.7"/>
  <rect x="276" y="184" width="48" height="12" rx="6" fill="#22c55e" opacity="0.4"/>
  <circle cx="328" cy="64" r="22" fill="#22c55e"/>
  <path d="M320 64L326 70L338 58" stroke="white" stroke-width="4" stroke-linecap="round" stroke-linejoin="round"/>
</svg>

