<svg width="400" height="260" viewBox="0 0 400 260" fill="none" xmlns="http://www.w3.org/2000/svg">
  <rect width="400" height="260" rx="24" fill="#020617"/>
  <rect x="52" y="52" width="84" height="156" rx="14" fill="#0f172a"/>
  <rect x="158" y="36" width="92" height="172" rx="14" fill="#0b1120"/>
  <rect x="268" y="76" width="80" height="132" rx="14" fill="#0f172a"/>
  <rect x="66" y="64" width="20" height="20" rx="4" fill="#22c55e" opacity="0.9"/>
  <rect x="98" y="64" width="20" height="20" rx="4" fill="#22c55e" opacity="0.75"/>
  <rect x="66" y="96" width="20" height="20" rx="4" fill="#1e293b"/>
  <rect x="98" y="96" width="20" height="20" rx="4" fill="#1e293b"/>
  <rect x="66" y="128" width="20" height="20" rx="4" fill="#1e293b"/>
  <rect x="98" y="128" width="20" height="20" rx="4" fill="#1e293b"/>
  <rect x="66" y="160" width="20" height="36" rx="5" fill="#22c55e"/>
  <rect x="98" y="160" width="20" height="36" rx="5" fill="#22c55e" opacity="0.7"/>
  <rect x="174" y="56" width="24" height="24" rx="5" fill="#22c55e"/>
  <rect x="206" y="56" width="24" height="24" rx="5" fill="#22c55e" opacity="0.8"/>
  <rect x="174" y="94" width="24" height="24" rx="5" fill="#1e293b"/>
  <rect x="206" y="94" width="24" height="24" rx="5" fill="#1e293b"/>
  <rect x="174" y="132" width="24" height="24" rx="5" fill="#1e293b"/>
  <rect x="206" y="132" width="24" height="24" rx="5" fill="#1e293b"/>
  <rect x="174" y="170" width="24" height="28" rx="5" fill="#22c55e"/>
  <rect x="206" y="170" width="24" height="28" rx="5" fill="#22c55e" opacity="0.7"/>
  <rect x="282" y="90" width="20" height="52" rx="4" fill="#22c55e" opacity="0.9"/>
  <rect x="310" y="90" width="20" height="52" rx="4" fill="#22c55e" opacity="0.7"/>
  <rect x="282" y="152" width="20" height="40" rx="4" fill="#1e293b"/>
  <rect x="310" y="152" width="20" height="40" rx="4" fill="#1e293b"/>
  <circle cx="80" cy="214" r="12" fill="#22c55e"/>
  <circle cx="320" cy="36" r="26" fill="#1d4ed8"/>
</svg>

