<svg width="400" height="260" viewBox="0 0 400 260" fill="none" xmlns="http://www.w3.org/2000/svg">
  <rect width="400" height="260" rx="24" fill="#020617"/>
  <path d="M88 196H152L192 156H256L296 116H344" stroke="#22c55e" stroke-width="10" stroke-linecap="round" stroke-linejoin="round"/>
  <path d="M64 212H152L192 172H256L296 132H352" stroke="#0f172a" stroke-width="18" stroke-linecap="round" stroke-linejoin="round"/>
  <rect x="64" y="64" width="48" height="72" rx="10" fill="#0f172a"/>
  <rect x="152" y="48" width="56" height="88" rx="10" fill="#0b1120"/>
  <rect x="252" y="80" width="48" height="56" rx="10" fill="#0f172a"/>
  <rect x="76" y="76" width="24" height="20" rx="4" fill="#22c55e"/>
  <rect x="166" y="60" width="28" height="20" rx="4" fill="#22c55e"/>
  <rect x="262" y="92" width="24" height="16" rx="4" fill="#22c55e"/>
  <circle cx="320" cy="60" r="22" fill="#22c55e"/>
  <path d="M312 60L318 66L330 54" stroke="white" stroke-width="4" stroke-linecap="round" stroke-linejoin="round"/>
</svg>

