<svg width="400" height="260" viewBox="0 0 400 260" fill="none" xmlns="http://www.w3.org/2000/svg">
  <rect width="400" height="260" rx="24" fill="#0f172a"/>
  <rect x="32" y="32" width="336" height="120" rx="20" fill="#020617"/>
  <rect x="56" y="56" width="120" height="12" rx="6" fill="#e5e7eb"/>
  <rect x="56" y="78" width="180" height="8" rx="4" fill="#9ca3af"/>
  <rect x="56" y="96" width="150" height="8" rx="4" fill="#1f2937"/>
  <rect x="56" y="114" width="110" height="8" rx="4" fill="#1f2937"/>
  <rect x="224" y="54" width="96" height="64" rx="16" fill="#22c55e" opacity="0.9"/>
  <path d="M244 86L256 98L284 70" stroke="white" stroke-width="8" stroke-linecap="round" stroke-linejoin="round"/>
  <rect x="60" y="176" width="56" height="44" rx="12" fill="#22c55e"/>
  <rect x="128" y="176" width="56" height="44" rx="12" fill="#22c55e" opacity="0.75"/>
  <rect x="196" y="176" width="56" height="44" rx="12" fill="#22c55e" opacity="0.5"/>
  <rect x="264" y="176" width="56" height="44" rx="12" fill="#0f172a" stroke="#e5e7eb" stroke-width="1.5"/>
</svg>

